<svg width="105" height="130" viewBox="0 0 105 130" fill="none" xmlns="http://www.w3.org/2000/svg">
<path d="M46.6546 0.866659C40.2613 2.8311 34.7204 8.0311 33.1373 13.6933L32.4675 16.1778H20.8377C7.56397 16.2355 5.2502 16.5822 2.63197 19.0089C0.744418 20.8 0.744418 20.8578 0.561751 27.7333C0.379084 33.9733 0.439973 34.84 1.59686 36.6311C2.38842 37.8444 3.84975 38.9422 5.31108 39.52L7.74664 40.4444V81.12C7.74664 108.564 7.92931 122.373 8.41642 123.471C9.32975 125.782 11.3391 127.689 14.14 128.902C16.3929 129.884 18.8893 130 52.5 130C86.1106 130 88.6071 129.884 90.86 128.902C93.6609 127.689 95.6702 125.782 96.5835 123.471C97.0706 122.373 97.2533 108.622 97.2533 81.2356V40.6756L99.7497 39.6356C103.708 37.96 104.56 36.0533 104.56 28.6C104.56 23.3422 104.377 21.9555 103.342 20.3955C101.089 16.8133 99.628 16.4667 84.9537 16.2933C72.7151 16.12 71.68 16.0044 71.68 15.08C71.68 13.0578 67.9049 6.93333 65.4693 4.96888C60.172 0.693326 52.6826 -0.98223 46.6546 0.866659ZM58.8324 7.68444C61.4506 8.95555 64.4951 12.3644 65.2866 14.8489L65.652 16.1778H52.1955H38.7391L39.1044 14.8489C39.7133 13.0578 42.1489 10.1111 44.4626 8.43555C48.4813 5.54666 53.8395 5.25777 58.8324 7.68444ZM97.8622 27.9644C98.1057 31.8356 97.984 33.3378 97.3751 33.9156C96.2182 34.9556 8.35553 35.0133 7.25953 33.9733C6.46797 33.2222 6.22442 23.6311 6.95508 22.9378C7.13775 22.7067 27.6573 22.5911 52.4391 22.6489L97.5577 22.8222L97.8622 27.9644ZM91.1644 80.8889V121.391L89.6422 122.778L88.1809 124.222H52.6217C17.5497 124.222 17.0017 124.222 15.4186 123.009L13.8355 121.853V81.12V40.4444H52.5H91.1644V80.8889Z" fill="black"/>
<path d="M28.8752 55.3511C27.9619 56.3333 27.8401 59.1067 27.8401 83.0845C27.8401 106.484 27.9619 109.778 28.8143 110.587C30.093 111.8 31.6761 111.742 32.8939 110.471C33.8072 109.489 33.929 106.716 33.929 82.7956C33.929 57.7778 33.8681 56.16 32.833 55.2933C31.3716 54.0222 30.093 54.08 28.8752 55.3511Z" fill="black"/>
<path d="M50.856 54.9467C49.8209 55.4667 49.76 57.4311 49.76 82.7956C49.76 111.684 49.76 111.511 52.5609 111.511C55.788 111.511 55.8489 111.107 55.8489 82.7956C55.8489 57.3733 55.788 56.5644 54.6311 55.4667C53.2916 54.1956 52.3782 54.08 50.856 54.9467Z" fill="black"/>
<path d="M72.2888 55.4667C71.1319 56.5644 71.071 57.3733 71.071 82.8533C71.071 107.756 71.1319 109.142 72.2279 110.413C73.2022 111.569 73.6284 111.684 75.0897 111.222L76.8555 110.644L77.0382 83.3733C77.1599 59.1644 77.0382 56.0444 76.1857 55.2356C74.907 54.0222 73.7502 54.08 72.2888 55.4667Z" fill="black"/>
</svg>
