<svg width="123" height="129" viewBox="0 0 123 129" fill="none" xmlns="http://www.w3.org/2000/svg">
<path d="M66.8932 36.3185L32.2639 72.6865L28.432 84.8423C26.3032 91.5404 24.6001 97.6927 24.6001 98.5361C24.6001 100.471 26.3032 102.208 28.1955 102.208C28.9524 102.208 34.7713 100.422 41.1578 98.1888L52.7482 94.17L87.4247 57.8515C119.972 23.7658 122.054 21.4835 122.054 19.8462C122.054 18.3081 121.297 17.3158 113.397 9.07961C105.544 0.793846 104.597 0 103.131 0C101.617 0 99.3463 2.23269 66.8932 36.3185ZM107.862 15.1327L112.356 19.8462L107.72 24.7085L103.131 29.5211L98.542 24.7085L93.9059 19.8462L98.4001 15.1327C100.86 12.5527 102.989 10.4192 103.131 10.4192C103.273 10.4192 105.402 12.5527 107.862 15.1327ZM72.9959 61.1262L48.4905 86.8269L41.962 89.1092C38.3666 90.3496 35.2916 91.2923 35.1497 91.1435C35.0078 90.9946 35.9066 87.7696 37.0893 83.9988L39.2655 77.1519L63.7236 51.5008L88.2289 25.8L92.8178 30.6127L97.4539 35.475L72.9959 61.1262Z" fill="black"/>
<path d="M12.2054 4.66384C7.37997 6.45 3.64266 10.0223 1.46651 14.835L0.236507 17.6135L0.0945841 64.9465C-0.0473389 117.539 -0.141954 115.207 3.12228 120.417C5.15651 123.741 8.42074 126.222 12.2527 127.512C15.1384 128.454 16.5104 128.504 61.5 128.504C106.49 128.504 107.862 128.454 110.747 127.512C116.377 125.676 120.351 121.409 122.148 115.505C122.905 112.776 123 110.543 123 89.7046V66.8815L121.628 65.4427C119.83 63.5573 118.127 63.5573 116.33 65.4427L114.958 66.8815V89.655C114.958 110.692 114.863 112.528 114.059 114.363C113.018 116.745 111.504 118.283 109.186 119.325C107.625 119.97 101.853 120.069 61.5 120.069C21.1465 120.069 15.375 119.97 13.8138 119.325C11.4957 118.283 9.98189 116.745 8.94112 114.363C8.08958 112.478 8.04228 110.047 8.04228 66.0877C8.04228 15.3311 7.85305 18.5561 10.8334 15.2319C13.7665 11.9077 12.3473 12.0069 54.7823 11.9077C61.3107 11.9077 62.0677 11.8085 62.9192 10.9154C64.2911 9.47653 64.1965 6.45 62.7773 5.06077L61.6892 3.96923H37.7988C19.4434 4.01884 13.5773 4.16769 12.2054 4.66384Z" fill="black"/>
</svg>
