<svg width="248" height="31" viewBox="0 0 248 31" fill="none" xmlns="http://www.w3.org/2000/svg">
<path d="M9.89062 0.984375C10.9844 0.984375 12.0469 1.17188 13.0781 1.54688C14.1406 1.92188 15.1562 2.46875 16.125 3.1875C16.2812 3.34375 16.4531 3.5 16.6406 3.65625C16.7969 3.5 16.9688 3.34375 17.1562 3.1875C18.125 2.46875 19.125 1.92188 20.1562 1.54688C21.2188 1.17188 22.2812 0.984375 23.3438 0.984375C24.4375 0.984375 25.5 1.17188 26.5312 1.54688C27.5938 1.92188 28.5938 2.48438 29.5312 3.23438C30.5 3.95313 31.3438 4.92188 32.0625 6.14062C32.8125 7.35938 33.1875 8.8125 33.1875 10.5V27.4219C33 29.2969 31.9688 30.3125 30.0938 30.4688C29.2188 30.4688 28.4531 30.1875 27.7969 29.625C27.1719 29.0312 26.8594 28.2969 26.8594 27.4219V10.875C26.8594 10.125 26.7188 9.5 26.4375 9C26.1562 8.46875 25.8438 8.0625 25.5 7.78125C25.1562 7.46875 24.7969 7.25 24.4219 7.125C24.0469 6.96875 23.6719 6.89062 23.2969 6.89062C22.9219 6.89062 22.5469 6.96875 22.1719 7.125C21.8281 7.25 21.4844 7.46875 21.1406 7.78125C20.7969 8.0625 20.4844 8.46875 20.2031 9C19.9219 9.5 19.7656 10.125 19.7344 10.875V27.4219C19.5469 29.2969 18.5156 30.3125 16.6406 30.4688C15.7656 30.4688 15 30.1875 14.3438 29.625C13.7188 29.0312 13.4062 28.2969 13.4062 27.4219V10.875C13.4062 10.125 13.2656 9.5 12.9844 9C12.7031 8.46875 12.3906 8.0625 12.0469 7.78125C11.7031 7.46875 11.3438 7.25 10.9688 7.125C10.5938 6.96875 10.2188 6.89062 9.84375 6.89062C9.46875 6.89062 9.09375 6.96875 8.71875 7.125C8.375 7.25 8.03125 7.46875 7.6875 7.78125C7.34375 8.0625 7.03125 8.46875 6.75 9C6.46875 9.5 6.3125 10.125 6.28125 10.875V27.4219C6.125 29.2969 5.10938 30.3125 3.23438 30.4688C2.35938 30.4688 1.59375 30.1875 0.9375 29.625C0.3125 29.0312 0 28.2969 0 27.4219V10.5C0.0625 8.8125 0.453125 7.35938 1.17188 6.14062C1.89062 4.92188 2.73438 3.95313 3.70312 3.23438C4.67188 2.48438 5.67188 1.92188 6.70312 1.54688C7.76562 1.17188 8.82812 0.984375 9.89062 0.984375ZM47.8125 2.25H49.9688H65.9062C66.7812 2.28125 67.5 2.60937 68.0625 3.23438C68.6562 3.85938 68.9531 4.60938 68.9531 5.48438C68.7969 7.35938 67.7812 8.375 65.9062 8.53125H49.4062C48.2188 8.59375 47.2344 9.04688 46.4531 9.89062C45.6719 10.7344 45.0938 11.7031 44.7188 12.7969C44.375 13.8594 44.2031 14.9531 44.2031 16.0781C44.2031 17.2031 44.375 18.3125 44.7188 19.4062C45.0938 20.4688 45.6719 21.4219 46.4531 22.2656C47.2344 23.1094 48.2188 23.5625 49.4062 23.625H65.9062C66.7812 23.6562 67.5 23.9844 68.0625 24.6094C68.6562 25.2344 68.9531 25.9844 68.9531 26.8594C68.9219 27.7031 68.6094 28.4219 68.0156 29.0156C67.4531 29.5781 66.75 29.875 65.9062 29.9062H48.7031H47.8125C45.625 29.7812 43.8125 28.9531 42.375 27.4219C40.9688 25.8594 39.9531 24.0938 39.3281 22.125C38.7344 20.1562 38.4375 18.1406 38.4375 16.0781C38.4375 14.0156 38.75 12 39.375 10.0312C40 8.0625 41.0156 6.3125 42.4219 4.78125C43.8281 3.21875 45.625 2.375 47.8125 2.25ZM68.8594 15.8906C68.8594 16.7656 68.5469 17.5 67.9219 18.0938C67.3281 18.7188 66.5938 19.0312 65.7188 19.0312H51.5625C50.6875 19.0312 49.9375 18.7344 49.3125 18.1406C48.7188 17.5156 48.4219 16.7656 48.4219 15.8906C48.4219 15.0156 48.7188 14.2656 49.3125 13.6406C49.9375 13.0469 50.6875 12.75 51.5625 12.75H65.7188C66.5938 12.75 67.3281 13.0625 67.9219 13.6875C68.5469 14.2812 68.8594 15.0156 68.8594 15.8906ZM79.9688 27.5156C79.7812 29.3906 78.75 30.4062 76.875 30.5625C76 30.5625 75.2344 30.2812 74.5781 29.7188C73.9531 29.125 73.6406 28.3906 73.6406 27.5156V5.29688C73.6719 4.42188 74 3.70312 74.625 3.14062C75.25 2.54688 76 2.25 76.875 2.25H79.1719H84.9375H96.5156C96.7031 2.25 96.8906 2.26563 97.0781 2.29688H97.3594C99.5469 2.35938 101.344 2.85938 102.75 3.79688C104.156 4.73438 105.172 5.8125 105.797 7.03125C106.422 8.21875 106.734 9.42188 106.734 10.6406C106.734 11.8906 106.422 13.125 105.797 14.3438C105.203 15.5312 104.188 16.5938 102.75 17.5312C101.344 18.4688 99.5469 18.9688 97.3594 19.0312H89.1094C89.3594 20.5938 89.875 21.75 90.6562 22.5C91.4062 23.25 92.3594 23.625 93.5156 23.625H103.641C104.516 23.6562 105.234 23.9844 105.797 24.6094C106.391 25.2344 106.688 25.9844 106.688 26.8594C106.656 27.7031 106.344 28.4219 105.75 29.0156C105.188 29.5781 104.484 29.875 103.641 29.9062H92.6719C90.3594 29.9375 88.2656 29.0312 86.3906 27.1875C84.5156 25.3438 83.375 23.1562 82.9688 20.625C82.4062 17.8125 82.125 16.2344 82.125 15.8906C82.125 15.0156 82.4219 14.2812 83.0156 13.6875C83.6406 13.0625 84.3906 12.75 85.2656 12.75H97.6406C98.2344 12.7188 98.7188 12.5938 99.0938 12.375C99.5 12.125 99.7969 11.8594 99.9844 11.5781C100.172 11.2656 100.266 10.9531 100.266 10.6406C100.266 10.3281 100.172 10.0312 99.9844 9.75C99.7969 9.4375 99.5 9.17188 99.0938 8.95312C98.7188 8.70312 98.2344 8.5625 97.6406 8.53125H84.9375H81.1875C80.375 8.5625 79.9688 8.96875 79.9688 9.75V27.5156ZM122.484 8.53125C121.297 8.59375 120.297 9.04688 119.484 9.89062C118.703 10.7344 118.141 11.7031 117.797 12.7969C117.453 13.8594 117.281 14.9531 117.281 16.0781C117.281 17.2031 117.438 18.3125 117.75 19.4062C118.094 20.5 118.672 21.4688 119.484 22.3125C120.297 23.125 121.297 23.5625 122.484 23.625H137.953C139.922 23.8125 141 24.8906 141.188 26.8594C141.156 27.7344 140.828 28.4688 140.203 29.0625C139.578 29.625 138.828 29.9062 137.953 29.9062H123H120.844C118.656 29.7812 116.859 28.9531 115.453 27.4219C114.047 25.8594 113.031 24.0938 112.406 22.125C111.812 20.1562 111.516 18.1406 111.516 16.0781C111.516 14.5469 111.688 13.0312 112.031 11.5312C112.375 10.0312 112.906 8.60938 113.625 7.26562C114.375 5.89062 115.359 4.71875 116.578 3.75C117.828 2.78125 119.25 2.28125 120.844 2.25H121.734H137.953C139.922 2.4375 141 3.51562 141.188 5.48438C141.188 6.35938 140.859 7.09375 140.203 7.6875C139.578 8.25 138.828 8.53125 137.953 8.53125H122.484ZM156.047 22.6406C156.047 21.7656 156.344 21.0312 156.938 20.4375C157.562 19.8125 158.312 19.5 159.188 19.5H166.359L165.141 16.0312C164.641 14.75 164.141 13.5469 163.641 12.4219C163.172 11.2656 162.625 10.2188 162 9.28125C161.438 8.34375 160.797 7.84375 160.078 7.78125C159.328 7.84375 158.656 8.34375 158.062 9.28125C157.469 10.2188 156.922 11.2656 156.422 12.4219C155.953 13.5469 155.469 14.75 154.969 16.0312L150.516 28.2188C150.203 28.875 149.797 29.4219 149.297 29.8594C148.828 30.2656 148.109 30.4688 147.141 30.4688C146.234 30.4688 145.484 30.1562 144.891 29.5312C144.328 28.9062 144.078 28.1562 144.141 27.2812C144.172 26.875 144.266 26.5 144.422 26.1562L149.578 12.8438C151.016 9.34375 152.453 6.51562 153.891 4.35938C155.297 2.23437 157.359 1.15625 160.078 1.125C162.766 1.15625 164.812 2.23437 166.219 4.35938C167.656 6.45312 169.094 9.28125 170.531 12.8438L175.688 26.1562C175.844 26.5 175.938 26.875 175.969 27.2812C176.031 28.1562 175.766 28.9062 175.172 29.5312C174.609 30.1562 173.875 30.4688 172.969 30.4688C171.938 30.4688 171.172 30.2656 170.672 29.8594C170.203 29.4219 169.812 28.875 169.5 28.2188L168.609 25.7812H159.188C158.312 25.7812 157.578 25.4688 156.984 24.8438C156.359 24.25 156.047 23.5156 156.047 22.6406Z" fill="#37B6FD"/>
<path d="M183.797 1.5C184.672 1.5 185.422 1.79688 186.047 2.39062C186.672 2.95312 187 3.67188 187.031 4.54688V5.4375C187 6.71875 187.078 7.90625 187.266 9C187.484 10.0625 187.984 11.0156 188.766 11.8594C189.547 12.7031 190.531 13.1562 191.719 13.2188H204.891V4.64062C204.891 3.76563 205.203 3.04688 205.828 2.48438C206.484 1.89063 207.25 1.59375 208.125 1.59375C210 1.75 211.031 2.76562 211.219 4.64062V15.5156C211.219 18.0156 210.875 20.375 210.188 22.5938C209.562 24.5625 208.531 26.2344 207.094 27.6094C205.688 28.9531 203.891 29.6875 201.703 29.8125H184.828C183.984 29.7812 183.266 29.4844 182.672 28.9219C182.109 28.3281 181.812 27.6094 181.781 26.7656C181.781 25.8906 182.062 25.1406 182.625 24.5156C183.219 23.8906 183.953 23.5625 184.828 23.5312H200.109C201.297 23.4688 202.281 23.0156 203.062 22.1719C203.781 21.3906 204.266 20.5 204.516 19.5H190.125C187.938 19.375 186.125 18.6406 184.688 17.2969C183.281 15.9219 182.266 14.25 181.641 12.2812C181.047 10.3125 180.734 8.21875 180.703 6V4.54688C180.734 3.70312 181.047 3 181.641 2.4375C182.234 1.84375 182.953 1.53125 183.797 1.5ZM227.906 22.6406C227.906 21.7656 228.203 21.0312 228.797 20.4375C229.422 19.8125 230.172 19.5 231.047 19.5H238.219L237 16.0312C236.5 14.75 236 13.5469 235.5 12.4219C235.031 11.2656 234.484 10.2188 233.859 9.28125C233.297 8.34375 232.656 7.84375 231.938 7.78125C231.188 7.84375 230.516 8.34375 229.922 9.28125C229.328 10.2188 228.781 11.2656 228.281 12.4219C227.812 13.5469 227.328 14.75 226.828 16.0312L222.375 28.2188C222.062 28.875 221.656 29.4219 221.156 29.8594C220.688 30.2656 219.969 30.4688 219 30.4688C218.094 30.4688 217.344 30.1562 216.75 29.5312C216.188 28.9062 215.938 28.1562 216 27.2812C216.031 26.875 216.125 26.5 216.281 26.1562L221.438 12.8438C222.875 9.34375 224.312 6.51562 225.75 4.35938C227.156 2.23437 229.219 1.15625 231.938 1.125C234.625 1.15625 236.672 2.23437 238.078 4.35938C239.516 6.45312 240.953 9.28125 242.391 12.8438L247.547 26.1562C247.703 26.5 247.797 26.875 247.828 27.2812C247.891 28.1562 247.625 28.9062 247.031 29.5312C246.469 30.1562 245.734 30.4688 244.828 30.4688C243.797 30.4688 243.031 30.2656 242.531 29.8594C242.062 29.4219 241.672 28.875 241.359 28.2188L240.469 25.7812H231.047C230.172 25.7812 229.438 25.4688 228.844 24.8438C228.219 24.25 227.906 23.5156 227.906 22.6406Z" fill="black"/>
</svg>
