<svg width="128" height="128" viewBox="0 0 128 128" fill="none" xmlns="http://www.w3.org/2000/svg">
<path d="M39.1 2.6C37.4 4 36 5.8 36 6.5C36 7.5 34.2 8 29.8 8.2L23.5 8.5V44C23.5 74.9 23.7 79.5 25 79.5C26.3 79.5 26.5 75.9 26.8 53.7L27 28H67.9H108.9L109.2 30.2C109.4 31.5 110.2 32.5 111 32.5C112.3 32.5 112.5 30.5 112.5 20.5V8.5L106.3 8.2C101.8 8 100 7.5 100 6.5C100 4.4 94.1 -1.18464e-06 91.2 -1.18464e-06C87.7 -1.18464e-06 82.4 3.3 81.5 5.9C80.6 8.8 78.3 8.5 76.6 5.2C73.1 -1.6 62.3 -1.4 59.2 5.4C57.7 8.8 55.9 8.7 53.8 5C50.7 -0.400001 44 -1.5 39.1 2.6ZM49.6 5.7C51.3 7.4 51.1 7.5 46.1 7.8C40.1 8.2 39.2 7.7 41 5.5C42.7 3.5 47.4 3.6 49.6 5.7ZM72.5 6C74.3 8 74.2 8 68 8C61.8 8 61.7 8 63.5 6C64.5 4.9 66.5 4 68 4C69.5 4 71.5 4.9 72.5 6ZM94.8 5.2C97 7.4 96 8 90.3 8C84.8 8 84.7 8 86.5 6C88.5 3.8 92.9 3.3 94.8 5.2ZM36 13.4C36 15.5 41.8 20 44.6 20C48.2 20 47.6 17.3 43.5 15.6C37.6 13.1 39.3 12 49 12C57.8 12 58 12 59.4 14.9C61 17.9 66 20.6 68.5 19.6C71 18.7 70.2 17.1 66.5 15.6C60.6 13.1 62.3 12 71.8 12C80.4 12 80.5 12 82.2 15C83.9 18.1 88.1 20.3 90.9 19.8C93.3 19.3 92.8 16.5 90.4 16.2C89.2 16 87.4 15 86.4 13.9C84.7 12 84.9 12 96.8 12H109V18V24H68H27V18V12H31.5C34.7 12 36 12.4 36 13.4Z" fill="black"/>
<path d="M39.1 33.4C38.4 34.2 38 36.8 38.2 39.2L38.5 43.5H68H97.5V38V32.5L68.9 32.2C45 32 40.1 32.2 39.1 33.4ZM94 38C94 39.9 93.3 40 68 40C42.7 40 42 39.9 42 38C42 36.1 42.7 36 68 36C93.3 36 94 36.1 94 38Z" fill="black"/>
<path d="M109.5 39.2C109.2 39.9 108.9 56.4 108.8 75.9L108.5 111.3L105.9 113.2C102.6 115.7 98.7 114.3 97.2 110.1L96.1 107H61.6H27.1L26.8 96.2C26.6 87.5 26.2 85.5 25 85.5C23.8 85.5 23.4 87.5 23.2 96.2L22.9 107H19C15.9 107 15 107.4 15 108.7C15 111.4 18.6 116.7 20.9 117.5C22.5 118 23 119.1 23.2 122.8L23.5 127.5H68H112.5V83.1C112.5 48.4 112.2 38.6 111.3 38.3C110.6 38 109.8 38.4 109.5 39.2ZM93.8 112.5L95 115H88C82.3 115 81 115.3 81 116.6C81 118 82.8 118.1 95 117.8L109 117.5V120.7V124H68H27V121V118H51.5C72.6 118 76 117.8 76 116.5C76 115.2 72.5 115 50.2 115C28.5 115 24.1 114.8 22.2 113.4C21 112.6 20 111.5 20 110.9C20 110.4 34.2 110 56.3 110H92.7L93.8 112.5Z" fill="black"/>
<path d="M41.9999 54.5001C40.1999 57.4001 39.4999 57.9001 38.3999 56.9001C37.2999 56.0001 36.5999 56.0001 35.6999 56.9001C34.7999 57.8001 35.1999 58.6001 37.1999 60.6001C38.5999 62.1001 40.2999 62.9001 40.8999 62.6001C42.7999 61.4001 47.1999 53.1001 46.4999 52.0001C45.3999 50.2001 44.1999 50.9001 41.9999 54.5001Z" fill="black"/>
<path d="M51.5 52.1C49.9 54.6 53.5 55 76.6 54.8C97.1 54.5 100.5 54.3 100.5 53C100.5 51.7 97 51.5 76.3 51.2C59.5 51 51.9 51.3 51.5 52.1Z" fill="black"/>
<path d="M51.5 60C50 62.4 52.7 63 66.1 63C78.9 63 80.1 62.8 79.8 61.2C79.5 59.7 77.9 59.5 65.8 59.2C57.2 59 51.9 59.3 51.5 60Z" fill="black"/>
<path d="M42 73C40.5 75.2 39.3 75.9 38 75.5C35.1 74.6 34.6 76.9 37.1 79.6C38.3 80.9 39.7 82 40.1 82C41.4 82 47.2 72.1 46.5 71C45.5 69.3 44.2 69.8 42 73Z" fill="black"/>
<path d="M51.5 71.1C49.9 73.6 53.5 74 76.6 73.8C97.1 73.5 100.5 73.3 100.5 72C100.5 70.7 97 70.5 76.3 70.2C59.5 70 51.9 70.3 51.5 71.1Z" fill="black"/>
<path d="M51.4 79.1C50 81.5 53.2 82 66.1 81.8C77.9 81.5 79.5 81.3 79.8 79.7C80.1 78.2 78.9 78 66.1 78C57.1 78 51.9 78.4 51.4 79.1Z" fill="black"/>
<path d="M42.1 91.9C40.5 94.1 39.5 94.6 37.5 94.2C36.1 94 35 94.2 35 94.7C35 96.5 38.2 100 39.8 100C41.4 99.9 47 92.1 47 89.9C47 88 44 89.1 42.1 91.9Z" fill="black"/>
<path d="M51.7 89.6C49.8 91.6 54.4 92 76.6 92C97.6 92 101 91.8 101 90.5C101 89.2 97.6 89 76.7 89C63.3 89 52 89.3 51.7 89.6Z" fill="black"/>
<path d="M51.7 97.6C49.9 99.4 53.4 100 66.1 100C77.8 100 80 99.8 80 98.5C80 97.2 77.8 97 66.2 97C58.6 97 52 97.3 51.7 97.6Z" fill="black"/>
</svg>
