<svg width="152" height="150" viewBox="0 0 152 150" fill="none" xmlns="http://www.w3.org/2000/svg">
<path d="M70.3759 6.18001C59.7359 7.29001 51.4671 9.72002 42.8335 14.28C25.2927 23.55 12.5551 39.93 7.96473 59.13C6.65753 64.56 6.26233 68.28 6.26233 75C6.26233 81.72 6.65753 85.44 7.96473 90.87C12.5551 110.07 25.2927 126.45 42.8639 135.72C52.5311 140.85 62.2287 143.43 73.4159 143.88C97.6447 144.87 120.718 133.23 134.246 113.19C136.678 109.59 139.992 103.17 141.512 99.15C142.971 95.28 144.522 89.28 145.221 84.9C145.95 80.1 145.95 69.87 145.221 65.13C140.387 34.5 117.162 11.46 86.3359 6.75002C83.2655 6.3 72.9599 5.91 70.3759 6.18001ZM82.1103 12.3C110.443 15.06 133.213 35.4 138.594 62.76C145.403 97.11 122.968 130.14 88.3423 136.8C65.5727 141.18 41.9215 133.05 27.2991 115.8C3.52633 87.78 8.29913 46.29 37.8175 24.48C50.3119 15.24 66.4847 10.77 82.1103 12.3Z" fill="black"/>
<path d="M43.4416 30.45C42.408 30.99 42.0736 31.8 41.3744 35.61C39.9152 43.32 39.0944 56.46 39.7936 60.9C40.3104 64.14 41.4352 67.05 43.0464 69.39C44.6576 71.7 45.9648 72.9 49.4 75.12C50.7376 75.99 52.0144 76.92 52.2576 77.22C52.8352 77.88 52.5616 79.77 51.1024 85.83C49.1872 93.57 48.8224 96.66 48.8224 104.4C48.792 111.99 49.2176 114.9 50.7984 118.71C53.3216 124.65 59.28 127.44 64.5696 125.13C71.1056 122.31 73.9632 112.59 72.6256 98.01C72.2912 94.5 71.44 89.91 69.768 82.86C69.3424 80.97 69.008 78.96 69.0688 78.36C69.16 77.31 69.3728 77.13 72.2 75.24C77.3376 71.85 79.7392 68.79 81.2288 63.75C81.8672 61.62 81.928 60.75 81.8976 55.8C81.8672 50.04 81.3808 45.06 80.0736 37.05C79.2224 31.8 78.9488 31.02 77.7936 30.45C76.5472 29.79 44.6272 29.82 43.4416 30.45ZM51.68 46.8C51.68 58.56 51.7408 58.92 53.352 59.64C54.9024 60.33 56.6048 59.85 57.3344 58.47C57.6688 57.78 57.76 55.59 57.76 46.8V36H60.8H63.84V46.8C63.84 58.38 63.9008 58.8 65.3904 59.58C66.424 60.09 67.2144 60.12 68.248 59.64C69.8592 58.92 69.92 58.56 69.92 46.8V36H71.8352H73.7808L74.1456 38.46C75.7264 48.66 76.3344 57.09 75.7264 60.87C75.0576 65.1 73.6592 67.05 69.16 69.96C63.8704 73.41 63.08 74.61 63.1104 79.05C63.1408 81.48 63.384 83.04 64.3872 87.18C66.424 95.43 66.6976 97.47 66.6976 104.4C66.6976 112.86 65.7856 116.64 63.1712 118.98C62.016 120 61.8336 120.06 60.4352 119.94C58.6112 119.76 57.4864 118.8 56.544 116.64C55.2064 113.58 54.9024 111.27 54.9024 104.4C54.9024 97.14 55.176 95.22 57.2128 86.88C58.216 82.8 58.4896 81.18 58.4896 78.9C58.52 74.61 57.6384 73.32 52.0448 69.6C50.5248 68.58 48.8832 67.32 48.4272 66.78C47.272 65.43 46.2992 63.15 45.8736 60.75C45.2048 56.91 45.9344 43.95 47.1504 37.8L47.5152 36H49.5824H51.68V46.8Z" fill="black"/>
<path d="M89.6495 30.45C89.2239 30.69 88.6767 31.26 88.4943 31.74C88.0079 32.91 88.1903 114.27 88.7071 116.64C89.7407 121.5 91.0479 123.87 93.4191 125.07C96.4287 126.57 99.6511 126.21 102.114 124.02C104.819 121.62 106.005 117.81 106.309 110.55C106.522 105.03 106.157 102.03 104.576 95.79C103.907 93.18 103.36 90.57 103.36 90C103.36 87.99 104.242 85.62 107.16 79.8C111.568 70.95 112.693 66.69 112.358 60.15C111.994 52.77 109.562 45.96 105.336 40.5C102.478 36.81 97.6751 32.91 93.4191 30.78C91.6255 29.91 90.8047 29.82 89.6495 30.45ZM97.2799 41.31C100.259 44.07 102.053 46.47 103.634 49.86C105.579 53.94 106.218 56.76 106.218 61.65C106.248 67.2 105.701 69.09 101.779 76.86C97.7967 84.84 97.4319 85.98 97.4623 90.15C97.4623 93.09 97.6143 93.96 98.7999 98.25L100.138 103.05V108.45C100.168 116.16 99.1647 120 97.1279 120C96.1247 120 95.4559 118.92 94.9087 116.46C94.5135 114.75 94.4223 108.87 94.3311 76.71C94.2399 52.74 94.3311 39 94.5135 39C94.6655 39 95.9119 40.05 97.2799 41.31Z" fill="black"/>
</svg>
