<svg width="140" height="133" viewBox="0 0 140 133" fill="none" xmlns="http://www.w3.org/2000/svg">
<g clip-path="url(#clip0_25:643)">
<path d="M43.5556 0.133011C35.6689 0.768463 28.5911 2.42357 21.4667 5.29046C15.2911 7.77312 9.11556 11.3789 3.81111 15.6201C2.05333 17.024 -2.52 21.3391 -4.12222 23.0977C-8.72667 28.1665 -12.8333 34.4766 -15.5556 40.6685C-19.2111 48.9883 -21 57.4265 -21 66.4261C-21 74.1845 -19.6311 81.7802 -16.9711 88.7849C-14.0467 96.4989 -10.2667 102.779 -4.71333 109.178C-2.90889 111.232 1.82 115.725 4.04445 117.483C13.1289 124.636 23.0533 129.202 34.8289 131.64C38.6556 132.438 44.3489 132.97 49 132.97C62.7978 132.97 76.0356 129.232 87.4222 122.094C98.9022 114.912 107.971 104.641 113.353 92.7158C115.142 88.7406 116.713 83.9821 117.678 79.6227C118.471 76.076 119 70.7117 119 66.4261C119 62.244 118.58 57.9732 117.818 54.0128L117.569 52.7271H114.007C111.891 52.7271 110.444 52.7862 110.444 52.8601C110.444 52.9488 110.553 53.4365 110.678 53.9537C111.424 57.0127 112 62.3622 112 66.3227C112 71.3915 111.362 76.475 110.18 80.8049C109.807 82.2236 109.418 83.6275 109.34 83.9378C108.811 85.9919 106.182 91.9473 104.533 94.8438C97.1756 107.686 85.5089 117.365 71.0733 122.552C65.5356 124.547 59.9667 125.7 53.4333 126.187C48.0822 126.586 40.3511 126.04 35.2022 124.902C18.1378 121.133 4.04445 111.454 -5.07111 97.2378C-6.59556 94.8881 -9.02222 90.0706 -10.0956 87.3071C-11.0444 84.8392 -12.3511 80.5389 -12.8178 78.3666C-13.8444 73.4308 -14.2644 66.766 -13.8289 61.9337C-13.6422 59.6875 -13.0044 55.2837 -12.6778 53.9241C-9.92444 42.5009 -4.43333 32.8215 3.88889 24.738C9.38 19.4032 14.4356 15.9305 21.3889 12.6794C30.1 8.63023 39.2622 6.62046 49.0467 6.62046C55.1289 6.62046 60.76 7.3889 66.6556 8.9849C68.3511 9.44302 69.1444 9.70901 71.68 10.5957L72.9556 11.0538L72.9244 7.49235L72.8778 3.93091L71.4 3.41368C69.7822 2.8669 65.6756 1.8029 63.2489 1.31523C61.3667 0.931015 56.9022 0.339905 54.2422 0.133011C51.9867 -0.0443115 45.78 -0.0443115 43.5556 0.133011Z" fill="black"/>
<path d="M112 12.0144C111.704 12.2065 110.024 13.2409 108.267 14.3197C90.7201 25.1075 74.2934 37.8607 58.1 53.2444C51.2089 59.7761 46.5889 64.505 41.0823 70.6378L38.9823 72.9727L38.4378 72.5737C38.1267 72.352 35.2956 70.2092 32.1223 67.8152C28.9645 65.4212 25.0445 62.4509 23.4112 61.2244C21.7934 59.9978 18.2 57.2787 15.4312 55.195C12.3356 52.8454 10.3289 51.4267 10.22 51.5006C10.1112 51.5597 9.44227 52.0621 8.71116 52.6237C7.98004 53.1852 5.24227 55.3132 2.61338 57.3378C-0.0310676 59.3771 -2.17773 61.1061 -2.17773 61.18C-2.17773 61.2687 -0.202179 63.2637 2.22449 65.6429C4.65115 68.0074 11.0289 74.2584 16.4112 79.5488C21.7934 84.8245 29.2445 92.1395 32.9778 95.8044C36.7112 99.4545 41.3934 104.065 43.4 106.045C45.4067 108.011 47.0867 109.622 47.1334 109.622C47.1956 109.622 47.4289 109.134 47.6778 108.543C49.0623 105.144 52.92 97.5334 55.7823 92.5532C67.7912 71.6427 84.7623 49.2396 102.122 31.3732C104.876 28.5507 109.029 24.5016 112.887 20.9401L115.687 18.3245L114.193 14.9847C113.369 13.1522 112.669 11.6597 112.622 11.6597C112.576 11.6597 112.296 11.8222 112 12.0144Z" fill="black"/>
</g>
<defs>
<clipPath id="clip0_25:643">
<rect width="140" height="133" fill="white"/>
</clipPath>
</defs>
</svg>
