<svg width="438" height="374" viewBox="0 0 438 374" fill="none" xmlns="http://www.w3.org/2000/svg">
<path d="M178.361 0.171844C163.988 1.54684 151.411 5.92966 138.834 14.0078C132.76 17.875 120.953 29.2187 117.189 34.8046L114.28 39.0156L104.612 39.3593C95.3722 39.6171 94.8589 39.7031 92.6344 42.0234L90.2389 44.3437L89.9822 69.6953L89.7255 95.0468H82.1111C77.8333 95.0468 74.4111 94.789 74.4111 94.3593C74.4111 94.0156 72.7 83.5312 70.5611 70.9843C66.8822 48.7265 66.7111 48.125 64.1444 45.8047L61.5777 43.4843H45.0655C36.0822 43.3984 24.4466 43.2265 19.2277 42.9687C7.33553 42.3671 3.65664 43.3984 1.4322 47.9531C-0.535582 51.9062 0.319974 55.9453 3.7422 58.4375C5.96664 60.1562 7.33553 60.2422 28.7244 60.5C41.13 60.6718 51.3111 60.9297 51.3111 61.1015C51.3111 61.3593 58.3266 104.5 68.3366 165.516C89.0411 291.586 87.2444 279.383 87.2444 294.68V308.687L82.7955 310.922C75.8655 314.359 70.5611 319.516 67.3955 326.047C64.7433 331.375 64.5722 332.32 64.5722 340.828C64.5722 349.078 64.8289 350.281 67.0533 355.008C76.8922 375.031 102.987 380.187 118.986 365.148C123.691 360.766 127.113 355.523 128.397 350.711L129.252 347.703H212.156C280.942 347.703 295.144 347.875 295.144 348.82C295.144 351.914 300.706 360.852 305.411 365.148C312.084 371.422 317.988 373.656 327.228 373.656C353.921 373.656 369.236 344.867 354.52 322.266C341.088 301.812 310.715 303.273 298.481 324.93L295.829 329.656H211.813H127.798L126.6 326.391C124.889 321.406 115.136 312.211 109.489 310.148L104.783 308.344L104.527 297.945L104.27 287.547H230.55H356.744L359.225 285.141C361.193 283.336 367.097 270.617 384.208 230.828C396.442 202.211 413.468 162.766 422.023 143.172C439.049 103.812 439.562 102.18 435.199 97.8828C432.889 95.4765 432.632 95.4765 420.911 95.2187L408.933 94.875V71.5859C408.933 58.1797 408.505 46.8359 408.078 45.0312C407.564 43.3124 406.195 41.0781 404.912 40.0468C402.773 38.414 401.747 38.3281 362.22 38.3281H321.667L318.929 40.8203L316.105 43.3124L315.849 58.6093L315.507 73.8203L296.599 54.8281C284.792 43.0546 276.75 35.664 275.296 35.3203C271.788 34.4609 269.478 35.5781 264.259 40.5624L259.553 45.289L255.19 38.5859C242.528 19.2499 224.048 6.35934 202.317 1.89059C195.729 0.601532 183.751 -0.257843 178.361 0.171844ZM197.953 18.9922C211.471 21.8281 224.476 29.0468 233.202 38.4999C236.71 42.1953 243.127 51.6484 244.581 55.3437L245.779 58.2656L227.47 76.6562L209.161 95.0468H202.573H195.9V72.0156C195.9 58.6093 195.558 47.6953 194.959 45.8047C194.36 43.5703 193.162 42.0234 191.366 40.9062C188.799 39.2734 186.831 39.1874 162.277 39.1874H135.926L141.743 33.9453C148.759 27.6718 161.849 20.9687 170.661 19.0781C178.447 17.4453 190.51 17.4453 197.953 18.9922ZM390.967 75.2812V95.0468H362.305H333.644V75.2812V55.5156H362.305H390.967V75.2812ZM292.578 75.7109L311.828 95.0468H273.242H234.742L254.078 75.7109C264.687 65.0547 273.328 56.375 273.328 56.375C273.328 56.375 281.969 65.0547 292.578 75.7109ZM177.933 76.1406V95.0468H142.684H107.35L107.607 76.1406L107.863 57.2343H142.856H177.933V76.1406ZM415.179 114.555C414.837 115.414 399.693 150.734 381.47 193.016L348.274 269.93H225.673H103.158L100.848 256.352L98.6233 242.859H214.893C298.909 242.859 331.677 242.602 333.046 241.914C338.435 239.164 339.633 232.375 335.441 228.164L332.96 225.672H214.38C149.187 225.672 95.8 225.414 95.8 225.156C95.8 224.297 92.4633 204.102 91.95 201.781L91.5222 199.891H179.302H267.082L269.563 197.398C273.755 193.187 272.558 186.398 267.168 183.648C265.799 182.961 240.389 182.703 177.163 182.703C94.0033 182.703 89.0411 182.617 88.6133 181.156C88.4422 180.383 87.5866 175.656 86.8166 170.672C86.0466 165.687 85.2766 160.789 85.02 159.758L84.6777 157.781L201.974 157.609L319.271 157.352L321.752 154.516C325.688 150.133 324.747 144.203 319.699 141.281C318.244 140.422 292.407 140.078 199.75 139.734L81.7689 139.305L79.8011 128.133C78.7744 121.945 77.9189 116.102 77.9189 114.984L77.8333 113.094H246.806C407.308 113.094 415.692 113.18 415.179 114.555ZM102.388 326.305C105.297 327.422 109.232 331.031 110.858 334.125C111.542 335.414 112.056 338.422 112.056 340.828C112.056 345.727 110.772 348.82 107.179 352.172C96.57 362.227 78.86 352.43 81.5977 337.906C83.3089 328.797 93.6611 322.953 102.388 326.305ZM334.243 326.992C336.468 328.023 338.692 330 340.232 332.32C345.28 339.969 342.371 350.883 334.243 354.664C323.549 359.477 312.255 352.516 312.084 340.914C311.999 329.312 323.463 322.094 334.243 326.992Z" fill="black"/>
</svg>
