<svg width="368" height="373" viewBox="0 0 368 373" fill="none" xmlns="http://www.w3.org/2000/svg">
<path d="M163.556 5.13913C121.195 10.1125 83.0862 29.6742 53.1555 61.5035C8.83197 108.916 -6.7058 175.393 11.776 239.549C24.5333 284.309 57.5715 324.759 99.7689 347.968C142.948 371.508 198.72 375.321 245.988 357.914C298.162 338.684 341.013 292.598 356.224 239.549C366.855 202.746 366.201 164.286 354.588 127.98C351.481 118.863 350.827 117.702 347.719 118.697C342.812 120.355 330.382 125.825 330.382 126.323C330.382 126.654 331.854 130.799 333.653 135.44C338.233 147.708 341.831 170.254 341.831 186.5C341.831 259.111 293.419 322.438 223.253 341.834C205.753 346.476 165.355 346.973 148.181 342.663C117.76 334.871 95.1893 321.94 72.7822 299.229C39.9075 265.908 24.8604 227.116 26.6595 180.698C27.6409 155.002 31.5662 138.922 42.3609 116.873C59.3706 81.8942 82.9226 58.5196 118.251 41.2787C140.658 30.5031 153.906 27.6849 183.182 27.5191C204.772 27.3534 210.66 28.0164 222.108 31.1662C233.721 34.316 255.801 43.1022 258.091 45.5889C258.581 45.9204 255.147 51.5569 250.404 58.0222C245.824 64.4875 242.062 70.2898 242.062 70.9529C242.062 71.7818 312.882 83.0547 317.625 82.8889C318.443 82.8889 292.764 12.5991 289.82 7.29425C288.839 5.47067 286.386 7.79156 280.661 15.7489C276.245 21.8827 271.829 26.3587 270.848 25.8614C237.973 11.4387 225.707 7.79156 201.991 4.97336C185.308 3.14978 180.892 3.14978 163.556 5.13913Z" fill="black"/>
<path d="M164.373 99.3009C155.869 103.28 148.181 111.568 143.765 121.847C140.821 128.146 139.84 134.114 139.349 147.045L138.695 163.954L133.952 164.949C127.083 166.607 118.251 177.382 116.942 186.003C116.288 189.981 116.125 208.051 116.452 226.287C116.942 263.089 118.087 267.4 128.064 273.533C132.971 276.683 136.569 276.849 184 276.849C253.838 276.849 250.731 279.336 251.549 224.463C251.876 202.58 251.385 186.832 250.24 182.687C248.114 174.564 240.59 166.441 234.048 164.949L229.469 163.954L228.651 147.045C227.833 127.98 224.235 117.371 215.403 107.921C207.225 99.3009 199.211 96.1512 184 96.1512C174.677 96.1512 168.953 97.1458 164.373 99.3009ZM196.43 121.515C204.445 126.986 206.08 131.462 206.08 148.703V164.12H184H161.92V147.874C161.92 129.97 163.229 126.488 172.388 120.852C179.421 116.542 189.561 116.708 196.43 121.515ZM190.052 187.329C191.851 187.329 196.267 190.147 199.701 193.794C204.935 199.099 206.08 201.254 206.08 206.559C205.917 214.185 203.627 218.992 197.575 223.8C193.159 227.116 192.996 228.11 192.996 241.372V255.298H183.182H173.369V240.875C173.369 226.95 173.205 226.452 168.462 222.308C159.467 214.516 159.303 202.083 167.808 193.297C172.388 188.821 180.729 185.505 184.491 186.666C185.799 186.997 188.253 187.329 190.052 187.329Z" fill="black"/>
</svg>
