<svg width="36" height="37" viewBox="0 0 36 37" fill="none" xmlns="http://www.w3.org/2000/svg">
<path d="M17.9219 7.14062C14.0918 7.14062 10.9844 10.248 10.9844 14.0781C10.9844 17.9082 14.0918 21.0156 17.9219 21.0156C21.752 21.0156 24.8594 17.9082 24.8594 14.0781C24.8594 10.248 21.752 7.14062 17.9219 7.14062ZM17.9219 17.5469C15.9707 17.5469 14.4531 16.0293 14.4531 14.0781C14.4531 12.1992 15.9707 10.6094 17.9219 10.6094C19.8008 10.6094 21.3906 12.1992 21.3906 14.0781C21.3906 16.0293 19.8008 17.5469 17.9219 17.5469ZM17.9219 0.203125C8.02148 0.203125 0 8.22461 0 18.125C0 28.0254 8.02148 36.0469 17.9219 36.0469C27.8223 36.0469 35.8438 28.0254 35.8438 18.125C35.8438 8.22461 27.8223 0.203125 17.9219 0.203125ZM17.9219 32.5781C14.3086 32.5781 10.9844 31.2773 8.45508 29.1094C9.53906 27.4473 11.418 26.291 13.5137 26.291C15.0312 26.7246 16.4766 26.9414 17.9219 26.9414C19.2949 26.9414 20.7402 26.7246 22.2578 26.291C24.3535 26.3633 26.2324 27.4473 27.3164 29.1094C24.7871 31.2773 21.4629 32.5781 17.9219 32.5781ZM29.6289 26.5078C27.8945 24.2676 25.1484 22.75 22.041 22.75C21.3184 22.75 20.1621 23.4727 17.9219 23.4727C15.6094 23.4727 14.4531 22.75 13.7305 22.75C10.623 22.75 7.87695 24.2676 6.14258 26.5078C4.4082 24.1953 3.46875 21.3047 3.46875 18.125C3.46875 10.1758 9.90039 3.67188 17.9219 3.67188C25.8711 3.67188 32.375 10.1758 32.375 18.125C32.375 21.3047 31.3633 24.1953 29.6289 26.5078Z" fill="#055F92"/>
</svg>
